<?xml version="1.0" encoding="utf-8"?>
<!DOCTYPE svg PUBLIC "-//W3C//DTD SVG 1.1//EN" "http://www.w3.org/Graphics/SVG/1.1/DTD/svg11.dtd">
<svg viewBox="0 0 24 24" xmlns="http://www.w3.org/2000/svg">
  <path
    d="M18 6a6 6 0 10-6 6 6 6 0 015.35 9h1.5A7.5 7.5 0 0012 10.5 4.5 4.5 0 1116.5 6Zm-6-3a3 3 0 000 6 1 1 0 000-6m0 1.5a1.5 1.5 0 010 3 1 1 0 010-3M7.5 15v1.5H9v6H4.5V24h15v-1.5H15v-6h1.5V15Zm3 1.5h3v6h-3zm-6 1.5a7.5 7.5 0 00.7 3h1.5a6 6 0 01-.7-3Z"
  />
  <style>
    path {
    fill: #000;
    }
    @media (prefers-color-scheme: dark) {
    path {
    fill: #FFF;
    }
    }
  </style>

</svg>
